<svg width="128" height="128" viewBox="0 0 128 128" fill="none" xmlns="http://www.w3.org/2000/svg">
  <defs>
    <linearGradient id="paint0_linear" x1="24" y1="24" x2="104" y2="104" gradientUnits="userSpaceOnUse">
      <stop stop-color="#6FE3BA"/>
      <stop offset="1" stop-color="#2DD4BF"/>
    </linearGradient>
  </defs>
  <rect x="18" y="18" width="92" height="92" rx="26" fill="#0A1623" stroke="url(#paint0_linear)" stroke-width="4"/>
  <rect x="36" y="42" width="56" height="44" rx="14" fill="url(#paint0_linear)"/>
  <path d="M54 55H74C78.4183 55 82 58.5817 82 63V68C82 72.4183 78.4183 76 74 76H54C49.5817 76 46 72.4183 46 68V63C46 58.5817 49.5817 55 54 55Z" fill="#0A1623"/>
  <path d="M63.9998 49.5C59.8577 49.5 56.4998 52.8579 56.4998 57V60H71.4998V57C71.4998 52.8579 68.142 49.5 63.9998 49.5Z" fill="#0A1623"/>
</svg>
