<svg xmlns="http://www.w3.org/2000/svg" width="217" viewBox="0 0 162.75 202.5" height="270" version="1.0"><defs><clipPath id="a"><path d="M.074 0h162.352v202H.074Zm0 0"/></clipPath><clipPath id="b"><path d="M.074 0h162.352v202H.074Zm0 0"/></clipPath><clipPath id="c"><path d="M2.094 0h158.344c1.39 0 2.722.55 3.703 1.535a5.223 5.223 0 0 1 1.535 3.703v191.528a5.237 5.237 0 0 1-5.238 5.234H2.094a5.242 5.242 0 0 1-3.703-1.531 5.253 5.253 0 0 1-1.536-3.703V5.238A5.24 5.24 0 0 1 2.094 0Zm0 0"/></clipPath><clipPath id="e"><path d="M.074 0h162.352v202H.074Zm0 0"/></clipPath><clipPath id="f"><path d="M2.094 0h158.344c1.39 0 2.722.55 3.703 1.535a5.223 5.223 0 0 1 1.535 3.703v191.528a5.237 5.237 0 0 1-5.238 5.234H2.094a5.242 5.242 0 0 1-3.703-1.531 5.253 5.253 0 0 1-1.536-3.703V5.238A5.24 5.24 0 0 1 2.094 0Zm0 0"/></clipPath><clipPath id="d"><path d="M0 0h163v202H0z"/></clipPath><clipPath id="g"><path d="M.074 0h162.352v202H.074Zm0 0"/></clipPath><clipPath id="h"><path d="M2.094.004h158.34a5.236 5.236 0 0 1 5.238 5.234v191.524a5.24 5.24 0 0 1-5.238 5.238H2.094a5.24 5.24 0 0 1-5.239-5.238V5.238A5.236 5.236 0 0 1 2.093.004Zm0 0"/></clipPath><clipPath id="i"><path d="M11.074 23.469h140.41v122.265H11.074Zm0 0"/></clipPath><clipPath id="j"><path d="M21.898 23.469h118.704a10.824 10.824 0 0 1 10.824 10.824V134.91c0 2.867-1.14 5.621-3.168 7.653a10.827 10.827 0 0 1-7.656 3.171H21.898c-2.87 0-5.625-1.14-7.656-3.172a10.838 10.838 0 0 1-3.168-7.652V34.293a10.824 10.824 0 0 1 10.824-10.824Zm0 0"/></clipPath><clipPath id="l"><path d="M.074.469h140.41v122.265H.074Zm0 0"/></clipPath><clipPath id="m"><path d="M10.898.469h118.704a10.824 10.824 0 0 1 10.824 10.824V111.91c0 2.867-1.14 5.621-3.168 7.653a10.827 10.827 0 0 1-7.656 3.171H10.898c-2.87 0-5.625-1.14-7.656-3.171a10.838 10.838 0 0 1-3.168-7.653V11.293A10.824 10.824 0 0 1 10.898.469Zm0 0"/></clipPath><clipPath id="k"><path d="M0 0h141v123H0z"/></clipPath><clipPath id="n"><path d="M30.926 23.469h98.008v121.949H30.926Zm0 0"/></clipPath><clipPath id="o"><path d="M39.98 33.242h37.54V77.91H39.98Zm0 0"/></clipPath><clipPath id="q"><path d="M.98.242h37.54V44.91H.98Zm0 0"/></clipPath><clipPath id="p"><path d="M0 0h39v45H0z"/></clipPath><clipPath id="r"><path d="M0 0h150v43H0z"/></clipPath></defs><g clip-path="url(#a)"><path fill="#fff" d="M.074 0h162.352v202H.074Zm0 0"/><path d="M.074 0h162.352v202H.074Zm0 0"/></g><g clip-path="url(#b)"><g clip-path="url(#c)"><g clip-path="url(#d)"><g clip-path="url(#e)"><g clip-path="url(#f)"><path d="M-3.145 0h168.82v201.79H-3.144Zm0 0"/></g></g></g></g></g><g clip-path="url(#g)"><g clip-path="url(#h)"><path fill="none" d="M2.094.004h158.34a5.236 5.236 0 0 1 5.238 5.234v191.524a5.24 5.24 0 0 1-5.238 5.238H2.094a5.24 5.24 0 0 1-5.239-5.238V5.238A5.236 5.236 0 0 1 2.093.004Zm0 0" stroke="#fff" stroke-width="13.467"/></g></g><g clip-path="url(#i)"><g clip-path="url(#j)"><g clip-path="url(#k)" transform="translate(11 23)"><g clip-path="url(#l)"><g clip-path="url(#m)"><path fill="#efefef" d="M.074.469h140.41v122.265H.074Zm0 0"/></g></g></g></g></g><path d="m35.695 28.64.735 52.485h43.879l.004-52.484Zm44.633 52.489.004 58.18c16.977-7.782 43.375-22.61 43.856-57.137l.015-1.043Zm0 0" fill-opacity=".396"/><g clip-path="url(#n)"><path fill="none" d="M35.695 28.64h58.766l29.676 27.57v32.966c0 34.644-28.352 42.668-43.848 50.851-16.965-7.8-43.414-16.32-43.844-50.851Zm0 0" stroke="#949494" stroke-width="7.006"/></g><path fill="none" d="M91.754 27.918v30.504h32.535" stroke="#949494" stroke-width="7.006"/><path d="M91.79 80.309a11.972 11.972 0 0 1-2.013 6.632c-.437.649-.93 1.254-1.484 1.809a12.188 12.188 0 0 1-1.809 1.484 12.045 12.045 0 0 1-4.304 1.782c-.77.152-1.547.23-2.328.23a11.982 11.982 0 0 1-4.57-.91 12.01 12.01 0 0 1-2.063-1.102 11.8 11.8 0 0 1-1.809-1.484 12.214 12.214 0 0 1-1.488-1.809 12.045 12.045 0 0 1-1.781-4.304c-.153-.77-.23-1.547-.23-2.328a11.982 11.982 0 0 1 .91-4.57 11.825 11.825 0 0 1 2.59-3.871 11.825 11.825 0 0 1 3.87-2.59 11.982 11.982 0 0 1 4.57-.91 11.972 11.972 0 0 1 6.633 2.01c.649.438 1.254.934 1.809 1.49a11.8 11.8 0 0 1 1.484 1.808 12.01 12.01 0 0 1 1.782 4.3c.152.77.23 1.547.23 2.333Zm0 0"/><path d="M76.746 80.207h6.215l6.223 32.871H70.52Zm0 0"/><g clip-path="url(#o)"><g clip-path="url(#p)" transform="translate(39 33)"><g clip-path="url(#q)"><path d="M.98.242h37.54v44.723H.98Zm0 0"/></g></g></g><g clip-path="url(#r)" fill="#fff" transform="translate(7 151)"><path d="M19.548 9.783v6.011l-1.079-.91c-1.464-.969-3.027-1.453-4.695-1.453-2.094 0-3.844.738-5.25 2.21-1.406 1.477-2.11 3.306-2.11 5.49 0 2.23.708 4.085 2.126 5.57 1.418 1.488 3.199 2.23 5.336 2.23 1.62 0 3.129-.45 4.523-1.352.293-.18.473-.293.543-.336.223-.226.414-.406.574-.543v5.743l-.609.234-1.723.61-.133.035c-.519.18-1.039.3-1.554.37-.52.067-1.125.102-1.824.102-3.512 0-6.485-1.219-8.914-3.648-2.43-2.43-3.649-5.414-3.649-8.95 0-3.601 1.227-6.617 3.684-9.046 2.453-2.434 5.515-3.65 9.183-3.65 1.598 0 3.254.336 4.965 1.012l.504.238Zm2.265 23.503V8.94h7.527c2.793 0 4.95.62 6.469 1.86 1.52 1.237 2.277 3.003 2.277 5.3 0 3.781-1.89 6.168-5.672 7.16l7.497 10.027h-6.383l-5.57-8.375a18.37 18.37 0 0 1-1.285-2.125c.07.403.113.782.136 1.13.023.347.035.816.035 1.402v7.968Zm4.996-19.89v6.789h1.723c1.28 0 2.289-.332 3.02-.996.734-.664 1.097-1.57 1.097-2.719 0-1.059-.348-1.89-1.047-2.5-.492-.383-1.203-.574-2.125-.574Zm10.128-4.457h6.012l3.277 5.539c.11.18.246.433.403.762.16.324.261.554.304.691.137.383.239.719.305 1.012.066.293.133.754.203 1.386.067-.586.13-1.03.184-1.336.058-.304.164-.656.32-1.062.07-.203.172-.441.305-.711.137-.27.27-.516.406-.742l3.273-5.54h6.012l-7.867 12.7v11.648h-5.266V21.638Zm21.209 24.347V8.94h8.61c2.34 0 4.21.676 5.605 2.027 1.395 1.352 2.094 3.176 2.094 5.469 0 1.734-.371 3.223-1.117 4.457A6.285 6.285 0 0 1 70.2 23.56c-1.058.43-2.398.644-4.02.644h-2.937v9.082Zm5.063-20.16v7.024h1.723c2.836 0 4.254-1.239 4.254-3.715 0-1.035-.293-1.844-.88-2.43-.581-.586-1.417-.879-2.495-.879Zm11.345.407V8.939H89.55v4.594l-5-.036v19.79h-5.098v-19.79ZM91.17 33.286V8.94h8.61c2.34 0 4.211.676 5.606 2.027 1.394 1.352 2.093 3.176 2.093 5.469 0 1.734-.37 3.223-1.117 4.457a6.285 6.285 0 0 1-3.136 2.668c-1.06.43-2.399.644-4.02.644h-2.938v9.082Zm5.063-20.16v7.024h1.723c2.836 0 4.254-1.239 4.254-3.715 0-1.035-.293-1.844-.879-2.43-.582-.586-1.418-.879-2.496-.879Zm7.497 20.16 9.321-24.347h5.57l9.32 24.347h-5.437l-1.754-4.761h-9.828l-1.754 4.761Zm11.11-15.43-2.297 6.72h6.586l-2.297-6.72-.539-1.62a11.43 11.43 0 0 1-.34-1.25c-.066-.34-.101-.813-.101-1.418a20.588 20.588 0 0 1-.152 1.297 26.96 26.96 0 0 1-.32 1.37Zm13.542 15.43V8.94h7.496c1.844 0 3.149.058 3.914.172.766.109 1.645.382 2.637.808 2.024.856 3.578 2.235 4.66 4.137 1.078 1.902 1.618 4.191 1.618 6.871 0 2.723-.528 5.078-1.586 7.059-1.059 1.98-2.555 3.422-4.493 4.32-.785.34-1.625.586-2.515.742-.887.16-1.961.238-3.223.238Zm5.098-19.789v15.266h2.5c4.906 0 7.36-2.602 7.36-7.8 0-3.2-1.024-5.403-3.075-6.622a5.29 5.29 0 0 0-1.703-.656c-.621-.125-1.426-.188-2.414-.188Zm0 0"/></g></svg>
