<svg xmlns="http://www.w3.org/2000/svg" xmlns:xlink="http://www.w3.org/1999/xlink" width="217" zoomAndPan="magnify" viewBox="0 0 162.75 202.499994" height="270" preserveAspectRatio="xMidYMid meet" version="1.0"><defs><g/><clipPath id="36e363fc75"><path d="M 0.0742188 0 L 162.425781 0 L 162.425781 202 L 0.0742188 202 Z M 0.0742188 0 " clip-rule="nonzero"/></clipPath><clipPath id="d89df16177"><path d="M 0.0742188 0 L 162.425781 0 L 162.425781 202 L 0.0742188 202 Z M 0.0742188 0 " clip-rule="nonzero"/></clipPath><clipPath id="8ca9ec6b12"><path d="M 2.09375 0 L 160.4375 0 C 161.828125 0 163.160156 0.550781 164.140625 1.535156 C 165.125 2.515625 165.675781 3.847656 165.675781 5.238281 L 165.675781 196.765625 C 165.675781 198.152344 165.125 199.484375 164.140625 200.46875 C 163.160156 201.449219 161.828125 202 160.4375 202 L 2.09375 202 C 0.707031 202 -0.628906 201.449219 -1.609375 200.46875 C -2.589844 199.484375 -3.144531 198.152344 -3.144531 196.765625 L -3.144531 5.238281 C -3.144531 3.847656 -2.589844 2.515625 -1.609375 1.535156 C -0.628906 0.550781 0.707031 0 2.09375 0 Z M 2.09375 0 " clip-rule="nonzero"/></clipPath><clipPath id="ed45745b3f"><path d="M 0.0742188 0 L 162.425781 0 L 162.425781 202 L 0.0742188 202 Z M 0.0742188 0 " clip-rule="nonzero"/></clipPath><clipPath id="7549e95de8"><path d="M 2.09375 0 L 160.4375 0 C 161.828125 0 163.160156 0.550781 164.140625 1.535156 C 165.125 2.515625 165.675781 3.847656 165.675781 5.238281 L 165.675781 196.765625 C 165.675781 198.152344 165.125 199.484375 164.140625 200.46875 C 163.160156 201.449219 161.828125 202 160.4375 202 L 2.09375 202 C 0.707031 202 -0.628906 201.449219 -1.609375 200.46875 C -2.589844 199.484375 -3.144531 198.152344 -3.144531 196.765625 L -3.144531 5.238281 C -3.144531 3.847656 -2.589844 2.515625 -1.609375 1.535156 C -0.628906 0.550781 0.707031 0 2.09375 0 Z M 2.09375 0 " clip-rule="nonzero"/></clipPath><clipPath id="715ef15447"><rect x="0" width="163" y="0" height="202"/></clipPath><clipPath id="978fe051e6"><path d="M 0.0742188 0 L 162.425781 0 L 162.425781 202 L 0.0742188 202 Z M 0.0742188 0 " clip-rule="nonzero"/></clipPath><clipPath id="3fe23c526b"><path d="M 2.09375 0.00390625 L 160.433594 0.00390625 C 161.824219 0.00390625 163.15625 0.554688 164.136719 1.535156 C 165.117188 2.519531 165.671875 3.851562 165.671875 5.238281 L 165.671875 196.761719 C 165.671875 198.152344 165.117188 199.484375 164.136719 200.464844 C 163.15625 201.445312 161.824219 202 160.433594 202 L 2.09375 202 C 0.703125 202 -0.628906 201.445312 -1.609375 200.464844 C -2.589844 199.484375 -3.144531 198.152344 -3.144531 196.761719 L -3.144531 5.238281 C -3.144531 3.851562 -2.589844 2.519531 -1.609375 1.535156 C -0.628906 0.554688 0.703125 0.00390625 2.09375 0.00390625 Z M 2.09375 0.00390625 " clip-rule="nonzero"/></clipPath><clipPath id="c93b06725a"><path d="M 11.074219 23.46875 L 151.484375 23.46875 L 151.484375 145.734375 L 11.074219 145.734375 Z M 11.074219 23.46875 " clip-rule="nonzero"/></clipPath><clipPath id="ae6cba268c"><path d="M 21.898438 23.46875 L 140.601562 23.46875 C 143.472656 23.46875 146.226562 24.609375 148.257812 26.640625 C 150.285156 28.667969 151.425781 31.421875 151.425781 34.292969 L 151.425781 134.910156 C 151.425781 137.777344 150.285156 140.53125 148.257812 142.5625 C 146.226562 144.59375 143.472656 145.734375 140.601562 145.734375 L 21.898438 145.734375 C 19.027344 145.734375 16.273438 144.59375 14.242188 142.5625 C 12.214844 140.53125 11.074219 137.777344 11.074219 134.910156 L 11.074219 34.292969 C 11.074219 31.421875 12.214844 28.667969 14.242188 26.640625 C 16.273438 24.609375 19.027344 23.46875 21.898438 23.46875 Z M 21.898438 23.46875 " clip-rule="nonzero"/></clipPath><clipPath id="1e3d9e02fb"><path d="M 0.0742188 0.46875 L 140.484375 0.46875 L 140.484375 122.734375 L 0.0742188 122.734375 Z M 0.0742188 0.46875 " clip-rule="nonzero"/></clipPath><clipPath id="954c08b57f"><path d="M 10.898438 0.46875 L 129.601562 0.46875 C 132.472656 0.46875 135.226562 1.609375 137.257812 3.640625 C 139.285156 5.667969 140.425781 8.421875 140.425781 11.292969 L 140.425781 111.910156 C 140.425781 114.777344 139.285156 117.53125 137.257812 119.5625 C 135.226562 121.59375 132.472656 122.734375 129.601562 122.734375 L 10.898438 122.734375 C 8.027344 122.734375 5.273438 121.59375 3.242188 119.5625 C 1.214844 117.53125 0.0742188 114.777344 0.0742188 111.910156 L 0.0742188 11.292969 C 0.0742188 8.421875 1.214844 5.667969 3.242188 3.640625 C 5.273438 1.609375 8.027344 0.46875 10.898438 0.46875 Z M 10.898438 0.46875 " clip-rule="nonzero"/></clipPath><clipPath id="4deb7cc1c2"><rect x="0" width="141" y="0" height="123"/></clipPath><clipPath id="ca478149d5"><path d="M 30.925781 23.46875 L 128.933594 23.46875 L 128.933594 145.417969 L 30.925781 145.417969 Z M 30.925781 23.46875 " clip-rule="nonzero"/></clipPath><clipPath id="6c6bb9ddc5"><path d="M 39.980469 33.242188 L 77.519531 33.242188 L 77.519531 77.910156 L 39.980469 77.910156 Z M 39.980469 33.242188 " clip-rule="nonzero"/></clipPath><clipPath id="5add4c4d0d"><path d="M 0.980469 0.242188 L 38.519531 0.242188 L 38.519531 44.910156 L 0.980469 44.910156 Z M 0.980469 0.242188 " clip-rule="nonzero"/></clipPath><clipPath id="6e626992ee"><rect x="0" width="39" y="0" height="45"/></clipPath><clipPath id="e2f53ecb9e"><rect x="0" width="150" y="0" height="43"/></clipPath></defs><g clip-path="url(#36e363fc75)"><path fill="#ffffff" d="M 0.0742188 0 L 162.425781 0 L 162.425781 202 L 0.0742188 202 Z M 0.0742188 0 " fill-opacity="1" fill-rule="nonzero"/><path fill="#000000" d="M 0.0742188 0 L 162.425781 0 L 162.425781 202 L 0.0742188 202 Z M 0.0742188 0 " fill-opacity="1" fill-rule="nonzero"/></g><g clip-path="url(#d89df16177)"><g clip-path="url(#8ca9ec6b12)"><g transform="matrix(1, 0, 0, 1, 0.000000000000000014, 0)"><g clip-path="url(#715ef15447)"><g clip-path="url(#ed45745b3f)"><g clip-path="url(#7549e95de8)"><path fill="#000000" d="M -3.144531 0 L 165.675781 0 L 165.675781 201.789062 L -3.144531 201.789062 Z M -3.144531 0 " fill-opacity="1" fill-rule="nonzero"/></g></g></g></g></g></g><g clip-path="url(#978fe051e6)"><g clip-path="url(#3fe23c526b)"><path stroke-linecap="butt" transform="matrix(0.748153, 0, 0, 0.748153, -3.142999, 0)" fill="none" stroke-linejoin="miter" d="M 6.999573 0.00522119 L 218.640664 0.00522119 C 220.499409 0.00522119 222.279836 0.74141 223.590355 2.051929 C 224.900875 3.36767 225.642284 5.148097 225.642284 7.001621 L 225.642284 262.996752 C 225.642284 264.855497 224.900875 266.635924 223.590355 267.946444 C 222.279836 269.256964 220.499409 269.998373 218.640664 269.998373 L 6.999573 269.998373 C 5.140828 269.998373 3.360401 269.256964 2.049882 267.946444 C 0.739362 266.635924 -0.0020475 264.855497 -0.0020475 262.996752 L -0.0020475 7.001621 C -0.0020475 5.148097 0.739362 3.36767 2.049882 2.051929 C 3.360401 0.74141 5.140828 0.00522119 6.999573 0.00522119 Z M 6.999573 0.00522119 " stroke="#ffffff" stroke-width="18" stroke-opacity="1" stroke-miterlimit="4"/></g></g><g clip-path="url(#c93b06725a)"><g clip-path="url(#ae6cba268c)"><g transform="matrix(1, 0, 0, 1, 11, 23)"><g clip-path="url(#4deb7cc1c2)"><g clip-path="url(#1e3d9e02fb)"><g clip-path="url(#954c08b57f)"><path fill="#efefef" d="M 0.0742188 0.46875 L 140.484375 0.46875 L 140.484375 122.734375 L 0.0742188 122.734375 Z M 0.0742188 0.46875 " fill-opacity="1" fill-rule="nonzero"/></g></g></g></g></g></g><path fill="#000000" d="M 35.695312 28.640625 L 36.429688 81.125 L 80.308594 81.125 L 80.3125 28.640625 Z M 35.695312 28.640625 " fill-opacity="0.396" fill-rule="nonzero"/><path fill="#000000" d="M 80.328125 81.128906 L 80.332031 139.308594 C 97.308594 131.527344 123.707031 116.699219 124.1875 82.171875 L 124.203125 81.128906 Z M 80.328125 81.128906 " fill-opacity="0.396" fill-rule="nonzero"/><g clip-path="url(#ca478149d5)"><path stroke-linecap="butt" transform="matrix(1.323942, 0, 0, 1.323942, -135.06579, -11.548186)" fill="none" stroke-linejoin="miter" d="M 128.979276 30.355412 L 173.366128 30.355412 L 195.780839 51.179821 L 195.780839 76.078827 C 195.780839 102.246534 174.366337 108.306797 162.661828 114.488029 C 149.847942 108.595943 129.870318 102.160971 129.545766 76.078827 Z M 128.979276 30.355412 " stroke="#949494" stroke-width="5.292" stroke-opacity="1" stroke-miterlimit="4"/></g><path stroke-linecap="butt" transform="matrix(1.323942, 0, 0, 1.323942, -135.06579, -11.548186)" fill="none" stroke-linejoin="miter" d="M 171.321453 29.809576 L 171.321453 52.849786 L 195.895908 52.849786 " stroke="#949494" stroke-width="5.292" stroke-opacity="1" stroke-miterlimit="4"/><path fill="#000000" d="M 91.789062 80.308594 C 91.789062 81.089844 91.710938 81.867188 91.558594 82.636719 C 91.40625 83.40625 91.179688 84.152344 90.878906 84.875 C 90.578125 85.601562 90.210938 86.289062 89.777344 86.941406 C 89.339844 87.589844 88.847656 88.195312 88.292969 88.75 C 87.738281 89.304688 87.132812 89.796875 86.484375 90.234375 C 85.832031 90.667969 85.144531 91.035156 84.417969 91.335938 C 83.695312 91.636719 82.949219 91.863281 82.179688 92.015625 C 81.410156 92.167969 80.632812 92.246094 79.851562 92.246094 C 79.066406 92.246094 78.289062 92.167969 77.519531 92.015625 C 76.753906 91.863281 76.003906 91.636719 75.28125 91.335938 C 74.558594 91.035156 73.867188 90.667969 73.21875 90.234375 C 72.566406 89.796875 71.960938 89.304688 71.410156 88.75 C 70.855469 88.195312 70.359375 87.589844 69.921875 86.941406 C 69.488281 86.289062 69.121094 85.601562 68.820312 84.875 C 68.519531 84.152344 68.292969 83.40625 68.140625 82.636719 C 67.988281 81.867188 67.910156 81.089844 67.910156 80.308594 C 67.910156 79.523438 67.988281 78.746094 68.140625 77.976562 C 68.292969 77.210938 68.519531 76.460938 68.820312 75.738281 C 69.121094 75.015625 69.488281 74.324219 69.921875 73.675781 C 70.359375 73.023438 70.855469 72.417969 71.410156 71.867188 C 71.960938 71.3125 72.566406 70.816406 73.21875 70.378906 C 73.871094 69.945312 74.558594 69.578125 75.28125 69.277344 C 76.003906 68.976562 76.753906 68.75 77.519531 68.597656 C 78.289062 68.445312 79.066406 68.367188 79.851562 68.367188 C 80.632812 68.367188 81.410156 68.445312 82.179688 68.597656 C 82.949219 68.75 83.695312 68.976562 84.417969 69.277344 C 85.144531 69.578125 85.832031 69.945312 86.484375 70.378906 C 87.132812 70.816406 87.738281 71.3125 88.292969 71.867188 C 88.847656 72.417969 89.339844 73.023438 89.777344 73.675781 C 90.210938 74.324219 90.578125 75.015625 90.878906 75.738281 C 91.179688 76.460938 91.40625 77.210938 91.558594 77.976562 C 91.710938 78.746094 91.789062 79.523438 91.789062 80.308594 Z M 91.789062 80.308594 " fill-opacity="1" fill-rule="nonzero"/><path fill="#000000" d="M 76.746094 80.207031 L 82.960938 80.207031 L 89.183594 113.078125 L 70.519531 113.078125 Z M 76.746094 80.207031 " fill-opacity="1" fill-rule="nonzero"/><g clip-path="url(#6c6bb9ddc5)"><g transform="matrix(1, 0, 0, 1, 39, 33)"><g clip-path="url(#6e626992ee)"><g clip-path="url(#5add4c4d0d)"><path fill="#000000" d="M 0.980469 0.242188 L 38.519531 0.242188 L 38.519531 44.964844 L 0.980469 44.964844 Z M 0.980469 0.242188 " fill-opacity="1" fill-rule="nonzero"/></g></g></g></g><g transform="matrix(1, 0, 0, 1, 7, 151)"><g clip-path="url(#e2f53ecb9e)"><g fill="#ffffff" fill-opacity="1"><g transform="translate(0.19992, 33.286432)"><g><path d="M 19.347656 -23.503906 L 19.347656 -17.492188 L 18.269531 -18.402344 C 16.804688 -19.371094 15.242188 -19.855469 13.574219 -19.855469 C 11.480469 -19.855469 9.730469 -19.117188 8.324219 -17.644531 C 6.917969 -16.167969 6.214844 -14.339844 6.214844 -12.15625 C 6.214844 -9.925781 6.921875 -8.070312 8.339844 -6.585938 C 9.757812 -5.097656 11.539062 -4.355469 13.675781 -4.355469 C 15.296875 -4.355469 16.804688 -4.804688 18.199219 -5.707031 C 18.492188 -5.886719 18.671875 -6 18.742188 -6.042969 C 18.964844 -6.269531 19.15625 -6.449219 19.316406 -6.585938 L 19.316406 -0.84375 L 18.707031 -0.609375 L 16.984375 0 L 16.851562 0.0351562 C 16.332031 0.214844 15.8125 0.335938 15.296875 0.40625 C 14.777344 0.472656 14.171875 0.507812 13.472656 0.507812 C 9.960938 0.507812 6.988281 -0.710938 4.558594 -3.140625 C 2.128906 -5.570312 0.910156 -8.554688 0.910156 -12.089844 C 0.910156 -15.691406 2.136719 -18.707031 4.59375 -21.136719 C 7.046875 -23.570312 10.109375 -24.785156 13.777344 -24.785156 C 15.375 -24.785156 17.03125 -24.449219 18.742188 -23.773438 L 19.246094 -23.535156 Z M 19.347656 -23.503906 "/></g></g></g><g fill="#ffffff" fill-opacity="1"><g transform="translate(20.055063, 33.286432)"><g><path d="M 1.757812 0 L 1.757812 -24.347656 L 9.285156 -24.347656 C 12.078125 -24.347656 14.234375 -23.726562 15.753906 -22.488281 C 17.273438 -21.25 18.03125 -19.484375 18.03125 -17.1875 C 18.03125 -13.40625 16.140625 -11.019531 12.359375 -10.027344 L 19.855469 0 L 13.472656 0 L 7.902344 -8.375 C 7.699219 -8.667969 7.503906 -8.964844 7.3125 -9.269531 C 7.121094 -9.574219 6.886719 -9.984375 6.617188 -10.5 C 6.6875 -10.097656 6.730469 -9.71875 6.753906 -9.371094 C 6.777344 -9.023438 6.789062 -8.554688 6.789062 -7.96875 L 6.789062 0 Z M 6.753906 -19.890625 L 6.753906 -13.101562 L 8.476562 -13.101562 C 9.757812 -13.101562 10.765625 -13.433594 11.496094 -14.097656 C 12.230469 -14.761719 12.59375 -15.667969 12.59375 -16.816406 C 12.59375 -17.875 12.246094 -18.707031 11.546875 -19.316406 C 11.054688 -19.699219 10.34375 -19.890625 9.421875 -19.890625 Z M 6.753906 -19.890625 "/></g></g></g><g fill="#ffffff" fill-opacity="1"><g transform="translate(38.491987, 33.286432)"><g><path d="M -1.554688 -24.347656 L 4.457031 -24.347656 L 7.734375 -18.808594 C 7.84375 -18.628906 7.980469 -18.375 8.136719 -18.046875 C 8.296875 -17.722656 8.398438 -17.492188 8.441406 -17.355469 C 8.578125 -16.972656 8.679688 -16.636719 8.746094 -16.34375 C 8.8125 -16.050781 8.878906 -15.589844 8.949219 -14.957031 C 9.015625 -15.542969 9.078125 -15.988281 9.132812 -16.292969 C 9.191406 -16.597656 9.296875 -16.949219 9.453125 -17.355469 C 9.523438 -17.558594 9.625 -17.796875 9.757812 -18.066406 C 9.894531 -18.335938 10.027344 -18.582031 10.164062 -18.808594 L 13.4375 -24.347656 L 19.449219 -24.347656 L 11.582031 -11.648438 L 11.582031 0 L 6.316406 0 L 6.316406 -11.648438 Z M -1.554688 -24.347656 "/></g></g></g><g fill="#ffffff" fill-opacity="1"><g transform="translate(56.388629, 33.286432)"><g><path d="M 1.757812 0 L 1.757812 -24.347656 L 10.367188 -24.347656 C 12.707031 -24.347656 14.578125 -23.671875 15.972656 -22.320312 C 17.367188 -20.96875 18.066406 -19.144531 18.066406 -16.851562 C 18.066406 -15.117188 17.695312 -13.628906 16.949219 -12.394531 C 16.207031 -11.15625 15.160156 -10.265625 13.8125 -9.726562 C 12.753906 -9.296875 11.414062 -9.082031 9.792969 -9.082031 L 6.855469 -9.082031 L 6.855469 0 Z M 6.820312 -20.160156 L 6.820312 -13.136719 L 8.542969 -13.136719 C 11.378906 -13.136719 12.796875 -14.375 12.796875 -16.851562 C 12.796875 -17.886719 12.503906 -18.695312 11.917969 -19.28125 C 11.335938 -19.867188 10.5 -20.160156 9.421875 -20.160156 Z M 6.820312 -20.160156 "/></g></g></g><g fill="#ffffff" fill-opacity="1"><g transform="translate(74.690476, 33.286432)"><g><path d="M -0.136719 -19.753906 L -0.136719 -24.347656 L 14.859375 -24.347656 L 14.859375 -19.753906 L 9.859375 -19.789062 L 9.859375 0 L 4.761719 0 L 4.761719 -19.789062 Z M -0.136719 -19.753906 "/></g></g><g transform="translate(89.413, 33.286432)"><g><path d="M 1.757812 0 L 1.757812 -24.347656 L 10.367188 -24.347656 C 12.707031 -24.347656 14.578125 -23.671875 15.972656 -22.320312 C 17.367188 -20.96875 18.066406 -19.144531 18.066406 -16.851562 C 18.066406 -15.117188 17.695312 -13.628906 16.949219 -12.394531 C 16.207031 -11.15625 15.160156 -10.265625 13.8125 -9.726562 C 12.753906 -9.296875 11.414062 -9.082031 9.792969 -9.082031 L 6.855469 -9.082031 L 6.855469 0 Z M 6.820312 -20.160156 L 6.820312 -13.136719 L 8.542969 -13.136719 C 11.378906 -13.136719 12.796875 -14.375 12.796875 -16.851562 C 12.796875 -17.886719 12.503906 -18.695312 11.917969 -19.28125 C 11.335938 -19.867188 10.5 -20.160156 9.421875 -20.160156 Z M 6.820312 -20.160156 "/></g></g></g><g fill="#ffffff" fill-opacity="1"><g transform="translate(105.047235, 33.286432)"><g><path d="M -1.316406 0 L 8.003906 -24.347656 L 13.574219 -24.347656 L 22.894531 0 L 17.457031 0 L 15.703125 -4.761719 L 5.875 -4.761719 L 4.121094 0 Z M 9.792969 -15.429688 L 7.496094 -8.710938 L 14.082031 -8.710938 L 11.785156 -15.429688 L 11.246094 -17.050781 C 11.085938 -17.546875 10.972656 -17.964844 10.90625 -18.300781 C 10.839844 -18.640625 10.804688 -19.113281 10.804688 -19.71875 C 10.738281 -19.042969 10.6875 -18.613281 10.652344 -18.421875 C 10.621094 -18.230469 10.511719 -17.773438 10.332031 -17.050781 Z M 9.792969 -15.429688 "/></g></g></g><g fill="#ffffff" fill-opacity="1"><g transform="translate(126.62451, 33.286432)"><g><path d="M 1.757812 0 L 1.757812 -24.347656 L 9.253906 -24.347656 C 11.097656 -24.347656 12.402344 -24.289062 13.167969 -24.175781 C 13.933594 -24.066406 14.8125 -23.792969 15.804688 -23.367188 C 17.828125 -22.511719 19.382812 -21.132812 20.464844 -19.230469 C 21.542969 -17.328125 22.082031 -15.039062 22.082031 -12.359375 C 22.082031 -9.636719 21.554688 -7.28125 20.496094 -5.300781 C 19.4375 -3.320312 17.941406 -1.878906 16.003906 -0.980469 C 15.21875 -0.640625 14.378906 -0.394531 13.488281 -0.238281 C 12.601562 -0.078125 11.527344 0 10.265625 0 Z M 6.855469 -19.789062 L 6.855469 -4.523438 L 9.355469 -4.523438 C 14.261719 -4.523438 16.714844 -7.125 16.714844 -12.324219 C 16.714844 -15.523438 15.691406 -17.726562 13.640625 -18.945312 C 13.125 -19.257812 12.554688 -19.476562 11.9375 -19.601562 C 11.316406 -19.726562 10.511719 -19.789062 9.523438 -19.789062 Z M 6.855469 -19.789062 "/></g></g></g></g></g></svg>
